# xmcd CD database file
#
# Track frame offsets:
#	150
#	14391
#	27226
#	38718
#	52729
#	62317
#	77188
#	90574
#	102321
#	113449
#	129626
#	142711
#	156950
#	170837
#	180345
#	198216
#	215458
#	237032
#	249846
#	263289
#	278679
#	291579
#	324133
#
# Disc length: 4763 seconds
#
# Revision: 0
# Processed by: cddbd v1.5.1PL0 Copyright (c) Steve Scherf et al.
# Submitted via: CDex 1.51
#
DISCID=21129917
DTITLE=Alvaro Menanteau - Historia del Jazz en Chile
DYEAR=2004
DGENRE=Jazz
TTITLE0=I tenía un lunar
TTITLE1=La Estrella
TTITLE2=Chica chica boum
TTITLE3=Menilmontant
TTITLE4=Kansa - Arizona
TTITLE5=Rosetta
TTITLE6=Darktown strutters'ball
TTITLE7=Clarinet marmalade
TTITLE8=Like a lonely shadow
TTITLE9=Lamento del directorio
TTITLE10=Cushion foot stomp
TTITLE11=Swingbaly
TTITLE12=Popo
TTITLE13=Serenata
TTITLE14=I could write a book
TTITLE15=Stolen Moments
TTITLE16=parisinofilia
TTITLE17=Patricia
TTITLE18=El viaje
TTITLE19=Para toda la gente
TTITLE20=Introducción al blues
TTITLE21=Cueca del cerro
TTITLE22=Tonada para la Pachamama
EXTD=YEAR: 2004
EXTT0=
EXTT1=
EXTT2=
EXTT3=
EXTT4=
EXTT5=
EXTT6=
EXTT7=
EXTT8=
EXTT9=
EXTT10=
EXTT11=
EXTT12=
EXTT13=
EXTT14=
EXTT15=
EXTT16=
EXTT17=
EXTT18=
EXTT19=
EXTT20=
EXTT21=
EXTT22=
PLAYORDER=
